<svg width="975" height="732" viewBox="0 0 975 732" fill="none" xmlns="http://www.w3.org/2000/svg">
<path d="M272.105 194.21C317.451 194.21 354.21 157.451 354.21 112.105C354.21 66.7597 317.451 30 272.105 30C226.76 30 190 66.7597 190 112.105C190 157.451 226.76 194.21 272.105 194.21Z" fill="#6C63FF"/>
<path d="M266.971 86.1512C276.246 86.1512 283.765 78.6322 283.765 69.357C283.765 60.0818 276.246 52.5627 266.971 52.5627C257.695 52.5627 250.176 60.0818 250.176 69.357C250.176 78.6322 257.695 86.1512 266.971 86.1512Z" fill="white"/>
<path d="M271.835 172.618C278.018 172.618 283.031 167.606 283.031 161.422C283.031 155.239 278.018 150.226 271.835 150.226C265.651 150.226 260.639 155.239 260.639 161.422C260.639 167.606 265.651 172.618 271.835 172.618Z" fill="white"/>
<path d="M310.389 134.235C316.573 134.235 321.586 129.222 321.586 123.039C321.586 116.855 316.573 111.843 310.389 111.843C304.206 111.843 299.193 116.855 299.193 123.039C299.193 129.222 304.206 134.235 310.389 134.235Z" fill="white"/>
<g clip-path="url(#clip0)">
<path d="M450.434 689.714C476.918 686.259 502.382 683.323 526.825 680.904L517.422 665.14C520.69 664.23 534.841 673.355 534.841 673.355L522.89 627.765C539.224 629.599 546.818 676.097 546.818 676.097L565.341 660.61L556.217 678.152C631.014 671.618 695.555 669.604 749.808 670.108L741.76 656.615C745.028 655.705 759.179 664.83 759.179 664.83L747.228 619.241C763.561 621.074 771.156 667.573 771.156 667.573L789.678 652.086L780.015 670.665C825.483 671.931 862.532 674.942 891.112 678.222C883.087 657.253 855.027 637.083 855.027 637.083C876.608 642.718 887.832 651.883 893.639 660.376C894.794 616.962 886.857 573.785 870.336 533.621C870.336 533.621 913.846 615.695 907.279 670.39L906.444 680.106C944.337 685.078 963.35 690.024 963.35 690.024L450.434 689.714Z" fill="#3F3D56"/>
<path d="M487.457 733.827C756.672 733.827 974.915 716.852 974.915 695.913C974.915 674.974 756.672 658 487.457 658C218.242 658 0 674.974 0 695.913C0 716.852 218.242 733.827 487.457 733.827Z" fill="#3F3D56"/>
<path d="M499.644 87.4731C499.644 87.4731 510.476 113.2 486.103 125.386C461.73 137.573 551.097 160.592 560.576 130.803C560.576 130.803 536.203 121.324 547.035 92.8893L499.644 87.4731Z" fill="#FFB9B9"/>
<path d="M528.756 618.937L527.402 647.372L550.42 651.434V622.999L528.756 618.937Z" fill="#FFB9B9"/>
<path d="M442.097 618.937L443.451 647.372L420.432 651.434V622.999L442.097 618.937Z" fill="#FFB9B9"/>
<path d="M526.048 103.045C546.987 103.045 563.961 86.0703 563.961 65.1314C563.961 44.1924 546.987 27.218 526.048 27.218C505.109 27.218 488.134 44.1924 488.134 65.1314C488.134 86.0703 505.109 103.045 526.048 103.045Z" fill="#FFB9B9"/>
<path d="M578.856 340.003L577.501 350.835L584.272 376.562L593.75 353.544L578.856 340.003Z" fill="#FFB9B9"/>
<path d="M428.556 344.065L420.432 440.203C420.432 440.203 410.954 457.805 416.37 472.7C416.37 472.7 408.245 493.011 410.954 499.781C413.662 506.551 415.016 513.321 412.308 516.029C409.599 518.738 408.245 594.564 412.308 601.334C416.37 608.105 419.078 624.353 419.078 624.353C419.078 624.353 442.097 629.769 447.513 614.875C452.929 599.98 450.221 598.626 455.637 594.564C461.053 590.502 461.053 533.632 461.053 533.632C461.053 533.632 454.283 526.862 458.345 524.154C462.407 521.446 465.115 524.154 461.053 517.383C456.991 510.613 450.221 510.613 456.991 507.905C460.764 506.443 464.39 504.63 467.823 502.489L507.091 399.581C507.091 399.581 521.985 514.675 524.694 520.091C527.402 525.508 531.464 518.737 527.402 525.508C523.339 532.278 521.985 528.216 523.339 532.278C524.694 536.34 515.215 594.564 520.631 606.751C523.793 613.794 526.506 621.03 528.756 628.415C528.756 628.415 550.42 637.894 553.129 631.123C555.837 624.353 554.483 612.167 558.545 610.813C562.607 609.459 566.669 606.751 566.669 595.918C566.669 585.086 574.793 532.278 574.793 532.278C574.793 532.278 565.315 528.216 568.023 521.446C570.731 514.675 570.731 516.029 569.377 510.613C568.023 505.197 565.315 503.843 568.023 499.781C570.731 495.719 570.731 483.532 570.731 483.532L586.98 376.562L574.432 340.003L428.556 344.065Z" fill="#2F2E41"/>
<path d="M530.11 640.602C530.11 640.602 526.048 636.54 524.694 640.602C523.34 644.664 523.34 682.577 523.34 682.577C523.34 682.577 534.172 690.702 534.172 694.764C534.172 698.826 542.296 712.366 561.253 709.658C561.443 709.631 561.63 709.603 561.816 709.573C564.56 709.128 567.163 708.051 569.42 706.427C571.676 704.802 573.524 702.676 574.817 700.214C576.11 697.753 576.812 695.024 576.869 692.245C576.926 689.465 576.336 686.71 575.145 684.198L555.837 643.31C555.837 643.31 542.296 629.769 530.11 640.602Z" fill="#2F2E41"/>
<path d="M440.743 640.602C440.743 640.602 444.805 636.54 446.159 640.602C447.513 644.664 447.513 682.577 447.513 682.577C447.513 682.577 436.68 690.702 436.68 694.764C436.68 698.826 428.556 712.366 409.599 709.658C409.41 709.631 409.222 709.603 409.037 709.573C406.292 709.128 403.689 708.051 401.433 706.427C399.176 704.802 397.329 702.676 396.036 700.214C394.743 697.753 394.04 695.024 393.983 692.245C393.926 689.465 394.516 686.71 395.707 684.198L415.016 643.31C415.016 643.31 428.556 629.769 440.743 640.602Z" fill="#2F2E41"/>
<path d="M497.152 24.0651L490.378 21.3532C490.378 21.3532 504.541 5.75999 524.247 7.11599L518.705 1.01421C518.705 1.01421 532.252 -4.40947 544.569 9.82777C551.043 17.312 558.534 26.1093 563.204 36.0194H570.458L567.43 42.686L578.027 49.3526L567.151 48.1551C568.181 53.9106 567.828 59.8286 566.122 65.4211L566.413 70.6904C566.413 70.6904 553.806 51.1837 553.806 48.4718V55.2515C553.806 55.2515 547.032 49.1498 547.032 45.082L543.337 49.8278L541.49 42.3701L518.705 49.8278L522.4 43.7261L508.236 45.76L513.778 38.3023C513.778 38.3023 497.767 47.1159 497.152 54.5736C496.536 62.0311 488.53 71.5227 488.53 71.5227L484.836 64.743C484.836 64.743 479.293 34.2346 497.152 24.0651Z" fill="#2F2E41"/>
<path d="M584.272 149.082H599.358C600.466 149.082 601.542 149.459 602.408 150.151C603.274 150.843 603.878 151.809 604.122 152.89C606.45 163.199 612.448 192.419 611.353 215.431C609.999 243.866 612.707 264.176 611.353 268.239C609.999 272.301 611.353 273.655 611.353 277.717C611.353 281.779 615.415 279.071 611.353 284.487C607.291 289.903 607.291 288.549 607.291 292.611C607.291 296.674 593.75 358.96 593.75 358.96C593.75 358.96 584.441 343.66 574.201 346.571L576.147 291.257L578.856 268.239L574.793 227.617L584.272 149.082Z" fill="#3F3D56"/>
<path d="M518.6 134.865C518.6 134.865 495.582 134.028 488.134 124.291C488.134 124.291 440.066 140.281 434.649 153.822C429.233 167.362 453.606 228.294 453.606 228.294C453.606 228.294 411.631 352.867 431.941 352.867C452.252 352.867 498.29 369.115 525.371 359.637C542.151 353.817 559.353 349.29 576.824 346.096C576.824 346.096 579.532 309.537 576.824 302.767C574.116 295.997 567.346 300.059 571.408 290.58C575.47 281.102 574.116 279.748 572.762 275.686C571.408 271.624 575.47 266.207 575.47 260.791C575.47 255.375 574.116 243.189 574.116 243.189C574.116 243.189 610.676 157.884 602.551 149.759C594.427 141.635 553.072 125.981 553.072 125.981C553.072 125.981 541.619 140.281 518.6 134.865Z" fill="#3F3D56"/>
<path d="M823.261 547.849C839.713 547.849 853.05 534.512 853.05 518.06C853.05 501.608 839.713 488.271 823.261 488.271C806.809 488.271 793.472 501.608 793.472 518.06C793.472 534.512 806.809 547.849 823.261 547.849Z" fill="#6C63FF"/>
<path d="M802.95 532.955C806.69 532.955 809.721 526.286 809.721 518.06C809.721 509.834 806.69 503.166 802.95 503.166C799.211 503.166 796.18 509.834 796.18 518.06C796.18 526.286 799.211 532.955 802.95 532.955Z" fill="white"/>
<path d="M802.95 181.864C813.203 181.864 821.515 173.553 821.515 163.3C821.515 153.047 813.203 144.735 802.95 144.735C792.698 144.735 784.386 153.047 784.386 163.3C784.386 173.553 792.698 181.864 802.95 181.864Z" fill="#3F3D56"/>
<path d="M798 156.466C802.152 153.459 804.409 149.491 803.042 147.604C801.675 145.717 797.202 146.625 793.05 149.632C788.898 152.64 786.641 156.607 788.008 158.494C789.375 160.382 793.849 159.473 798 156.466Z" fill="white"/>
<path d="M663.484 659.843C673.736 659.843 682.048 651.532 682.048 641.279C682.048 631.026 673.736 622.714 663.484 622.714C653.231 622.714 644.919 631.026 644.919 641.279C644.919 651.532 653.231 659.843 663.484 659.843Z" fill="#3F3D56"/>
<path d="M658.533 634.445C662.685 631.438 664.942 627.47 663.575 625.583C662.208 623.696 657.735 624.604 653.583 627.611C649.431 630.619 647.174 634.586 648.541 636.473C649.908 638.36 654.382 637.452 658.533 634.445Z" fill="white"/>
<path d="M820.553 412.445C837.005 412.445 850.342 399.108 850.342 382.656C850.342 366.204 837.005 352.867 820.553 352.867C804.101 352.867 790.764 366.204 790.764 382.656C790.764 399.108 804.101 412.445 820.553 412.445Z" fill="#3F3D56"/>
<path d="M800.242 397.55C803.981 397.55 807.013 390.882 807.013 382.656C807.013 374.43 803.981 367.761 800.242 367.761C796.503 367.761 793.472 374.43 793.472 382.656C793.472 390.882 796.503 397.55 800.242 397.55Z" fill="white"/>
<path d="M727.124 356.929C743.576 356.929 756.913 343.592 756.913 327.14C756.913 310.688 743.576 297.351 727.124 297.351C710.672 297.351 697.335 310.688 697.335 327.14C697.335 343.592 710.672 356.929 727.124 356.929Z" fill="#3F3D56"/>
<path d="M719.18 316.174C725.842 311.348 729.465 304.982 727.271 301.953C725.078 298.925 717.899 300.382 711.237 305.208C704.575 310.034 700.953 316.401 703.146 319.429C705.34 322.457 712.519 321 719.18 316.174Z" fill="white"/>
<path d="M724.416 221.524C740.868 221.524 754.205 208.187 754.205 191.735C754.205 175.283 740.868 161.946 724.416 161.946C707.964 161.946 694.627 175.283 694.627 191.735C694.627 208.187 707.964 221.524 724.416 221.524Z" fill="#6C63FF"/>
<path d="M716.472 180.769C723.134 175.943 726.757 169.577 724.563 166.549C722.37 163.52 715.191 164.978 708.529 169.803C701.867 174.629 698.245 180.996 700.438 184.024C702.632 187.052 709.811 185.595 716.472 180.769Z" fill="white"/>
<path d="M800.242 46.4595C810.495 46.4595 818.807 38.1479 818.807 27.895C818.807 17.6422 810.495 9.33063 800.242 9.33063C789.99 9.33063 781.678 17.6422 781.678 27.895C781.678 38.1479 789.99 46.4595 800.242 46.4595Z" fill="#6C63FF"/>
<path d="M795.292 21.0613C799.444 18.054 801.701 14.0863 800.334 12.1991C798.967 10.312 794.494 11.2201 790.342 14.2275C786.19 17.2348 783.933 21.2025 785.3 23.0897C786.667 24.9768 791.141 24.0686 795.292 21.0613Z" fill="white"/>
<path d="M660.775 524.438C671.028 524.438 679.34 516.127 679.34 505.874C679.34 495.621 671.028 487.31 660.775 487.31C650.523 487.31 642.211 495.621 642.211 505.874C642.211 516.127 650.523 524.438 660.775 524.438Z" fill="#3F3D56"/>
<path d="M655.825 499.04C659.977 496.033 662.234 492.065 660.867 490.178C659.5 488.291 655.027 489.199 650.875 492.206C646.723 495.214 644.466 499.181 645.833 501.069C647.2 502.956 651.673 502.048 655.825 499.04Z" fill="white"/>
<path d="M412.308 353.544C412.308 353.544 400.121 417.184 420.432 411.768C440.743 406.351 431.264 353.544 431.264 353.544H412.308Z" fill="#FFB9B9"/>
<path d="M443.451 149.082L438.642 151.487C436.77 152.423 435.14 153.779 433.88 155.45C432.619 157.121 431.763 159.061 431.377 161.118L412.308 262.822C412.308 262.822 406.891 275.009 406.891 276.363C406.891 277.717 409.6 277.717 406.891 281.779C404.183 285.841 400.121 284.487 402.829 287.195C404.375 288.6 405.341 290.532 405.537 292.611L408.245 358.96C408.245 358.96 431.264 352.19 438.035 358.96C438.035 358.96 431.264 338.649 435.326 331.879C439.389 325.108 439.389 315.63 439.389 315.63C439.389 315.63 436.681 315.63 443.451 308.86C450.221 302.09 451.575 299.382 450.221 298.028C448.867 296.674 447.513 284.487 447.513 283.133C447.513 281.779 461.053 191.058 461.053 191.058L443.451 149.082Z" fill="#3F3D56"/>
<path d="M319.739 20.633C318.04 18.8004 316.037 17.3741 313.845 16.4355C311.654 15.4968 309.317 15.0641 306.967 15.1622C304.618 15.2602 302.302 15.8871 300.152 17.007C298.002 18.1269 296.06 19.7178 294.437 21.689C292.814 23.6602 291.541 25.973 290.692 28.4955C289.843 31.0179 289.434 33.7005 289.488 36.3901C289.543 39.0798 290.059 41.7238 291.008 44.1712C291.958 46.6185 293.321 48.8213 295.021 50.6539L320.907 78.5627L345.626 48.5418C348.904 44.5608 350.684 39.2726 350.574 33.8406C350.465 28.4087 348.475 23.2778 345.042 19.5769C341.609 15.876 337.015 13.9081 332.27 14.1061C327.525 14.3042 323.017 16.6519 319.739 20.633Z" fill="#FF6584"/>
<path d="M341.49 170.618C325.726 170.619 290.914 154.428 259.954 135.465C221.536 111.934 184.224 81.1768 190.747 70.5264C192.59 67.5166 197.16 66.7295 204.72 68.1172L204.178 71.0684C198.324 69.9912 194.362 70.3672 193.305 72.0928C191.763 74.6104 195.163 81.919 209.329 94.8809C222.238 106.694 240.773 120.198 261.522 132.906C282.269 145.614 302.721 155.99 319.109 162.123C337.093 168.854 345.148 168.56 346.689 166.044C347.748 164.315 346.277 160.611 342.653 155.88L345.035 154.056C349.714 160.166 351.092 164.6 349.248 167.61C347.981 169.679 345.288 170.618 341.49 170.618Z" fill="#3F3D56"/>
</g>
<defs>
<clipPath id="clip0">
<rect width="974.915" height="732" fill="white"/>
</clipPath>
</defs>
</svg>
